#N canvas 344 659 1354 693 12;
#X obj 879 921 soundfiler;
#N canvas 0 22 450 278 (subpatch) 0;
#X array AUDIODATA1 1.69344e+07 float 2;
#X coords 0 1 1.69344e+07 -1 200 140 1;
#X restore 853 1217 graph;
#N canvas 0 22 450 278 (subpatch) 0;
#X array AUDIODATA2 1.69344e+07 float 2;
#X coords 0 1 1.69344e+07 -1 200 140 1 0 0;
#X restore 1076 1215 graph;
#X obj 905 1107 *~;
#X obj 951 1107 *~;
#X floatatom 1003 1065 5 0 1 0 - - - 0;
#X obj 918 1162 dac~;
#X msg 1933 36 stop, f 14;
#X obj 507 291 soundfiler;
#N canvas 0 22 450 278 (subpatch) 0;
#X array AUDIODATA3 1.69344e+07 float 2;
#X coords 0 1 1.69344e+07 -1 200 140 1 0 0;
#X restore 546 523 graph;
#N canvas 0 22 450 278 (subpatch) 0;
#X array AUDIODATA4 1.69344e+07 float 2;
#X coords 0 1 1.69344e+07 -1 200 140 1 0 0;
#X restore 766 525 graph;
#X obj 592 427 *~;
#X obj 638 427 *~;
#X floatatom 710 422 5 0 0.5 0 - - - 0;
#X obj 608 472 dac~;
#X obj 1502 21 bng 40 250 50 0 empty empty PLAY 0 -10 0 12 #00ff04
#000000 #000000;
#X obj 817 984 tabplay~ AUDIODATA1;
#X obj 999 984 tabplay~ AUDIODATA2;
#X obj 504 341 tabplay~ AUDIODATA3;
#X obj 656 341 tabplay~ AUDIODATA4;
#X obj 1016 299 soundfiler;
#N canvas 0 22 450 278 (subpatch) 0;
#X array AUDIODATA5 1.69344e+07 float 2;
#X coords 0 1 1.69344e+07 -1 200 140 1 0 0;
#X restore 987 524 graph;
#N canvas 0 22 450 278 (subpatch) 0;
#X array AUDIODATA6 1.69344e+07 float 2;
#X coords 0 1 1.69344e+07 -1 200 140 1 0 0;
#X restore 1210 522 graph;
#X obj 1036 424 *~;
#X obj 1082 424 *~;
#X floatatom 1131 403 5 0 0.75 0 - - - 0;
#X obj 1052 469 dac~;
#X obj 954 362 tabplay~ AUDIODATA5;
#X obj 1136 362 tabplay~ AUDIODATA6;
#X obj 1463 299 soundfiler;
#N canvas 0 22 450 278 (subpatch) 0;
#X array AUDIODATA7 1.69344e+07 float 2;
#X coords 0 1 1.69344e+07 -1 200 140 1 0 0;
#X restore 1434 524 graph;
#N canvas 0 22 450 278 (subpatch) 0;
#X array AUDIODATA8 1.69344e+07 float 2;
#X coords 0 1 1.69344e+07 -1 200 140 1 0 0;
#X restore 1657 522 graph;
#X obj 1483 424 *~;
#X obj 1522 425 *~;
#X floatatom 1550 393 5 0 0.5 0 - - - 0;
#X obj 1499 469 dac~;
#X obj 1401 362 tabplay~ AUDIODATA7;
#X obj 1557 326 tabplay~ AUDIODATA8;
#X obj 1902 217 soundfiler;
#N canvas 0 22 450 278 (subpatch) 0;
#X array AUDIODATA9 1.69344e+07 float 2;
#X coords 0 1 1.69344e+07 -1 200 140 1 0 0;
#X restore 1880 522 graph;
#N canvas 0 22 450 278 (subpatch) 0;
#X array AUDIODATA10 1.69344e+07 float 2;
#X coords 0 1 1.69344e+07 -1 200 140 1 0 0;
#X restore 2103 520 graph;
#X obj 1929 422 *~;
#X obj 1975 422 *~;
#X floatatom 2020 395 5 0 0.75 0 - - - 0;
#X obj 1945 467 dac~;
#X obj 1840 280 tabplay~ AUDIODATA9;
#X obj 2022 280 tabplay~ AUDIODATA10;
#X obj 1279 927 soundfiler;
#N canvas 0 22 450 278 (subpatch) 0;
#X array AUDIODATA11 1.69344e+07 float 2;
#X coords 0 1 1.69344e+07 -1 200 140 1 0 0;
#X restore 1305 1213 graph;
#N canvas 0 22 450 278 (subpatch) 0;
#X array AUDIODATA12 1.69344e+07 float 2;
#X coords 0 1 1.69344e+07 -1 200 140 1 0 0;
#X restore 1528 1211 graph;
#X obj 1354 1113 *~;
#X obj 1400 1113 *~;
#X floatatom 1445 1086 5 0 1 0 - - - 0;
#X obj 1370 1158 dac~;
#X obj 1217 990 tabplay~ AUDIODATA11;
#X obj 1399 990 tabplay~ AUDIODATA12;
#X obj 1583 62 bng 19 250 50 0 empty empty LOOPBANG 0 -10 0 12 #ff8300
#000000 #000000;
#X obj 1786 856 soundfiler;
#N canvas 0 22 450 278 (subpatch) 0;
#X array AUDIODATA13 1.69344e+07 float 2;
#X coords 0 1 1.69344e+07 -1 200 140 1 0 0;
#X restore 1764 1213 graph;
#N canvas 0 22 450 278 (subpatch) 0;
#X array AUDIODATA14 1.69344e+07 float 2;
#X coords 0 1 1.69344e+07 -1 200 140 1 0 0;
#X restore 1987 1211 graph;
#X obj 1800 1051 *~;
#X obj 1846 1051 *~;
#X floatatom 1891 1024 5 0 1 0 - - - 0;
#X obj 1816 1096 dac~;
#X obj 1724 919 tabplay~ AUDIODATA13;
#X obj 1906 919 tabplay~ AUDIODATA14;
#X obj 519 151 bng 19 250 50 0 empty empty CARGARAUDIOS 0 -10 0 12
#9c00ff #000000 #000000;
#X msg 506 248 read -resize TINKU1.wav AUDIODATA3 AUDIODATA4;
#X msg 1015 256 read -resize TINKU2.wav AUDIODATA5 AUDIODATA6;
#X msg 1462 256 read -resize TINKU3.wav AUDIODATA7 AUDIODATA8;
#X obj 580 25 delay 2000;
#X obj 682 59 delay 2000;
#X obj 797 75 delay 2000;
#X obj 900 102 delay 2000;
#X obj 1008 92 delay 2000;
#X obj 1094 47 delay 2000;
#X msg 1901 174 read -resize TINKU4.wav AUDIODATA9 AUDIODATA10;
#X msg 878 878 read -resize TINKU5.wav AUDIODATA1 AUDIODATA2;
#X msg 1278 884 read -resize TINKU6.wav AUDIODATA11 AUDIODATA12;
#X msg 1785 813 read -resize TINKU7.wav AUDIODATA13 AUDIODATA14;
#X obj 55 42 histograma_osc_receiver;
#X obj 138 292 s bio1;
#X obj 2016 352 r bio1;
#X obj 160 265 s bio2;
#X obj 1570 363 r bio2;
#X obj 175 241 s organic1;
#X obj 195 213 s ogranic2;
#X obj 217 185 s absorcion1;
#X obj 241 153 s absorcion2;
#X obj 256 129 s porosity1;
#X obj 270 103 s porosity2;
#X obj 1018 1030 r organic1;
#X floatatom 596 1041 5 0 0 0 - - - 0;
#X obj 598 996 r organic2;
#X obj 1434 1046 r absorcion1;
#X obj 1930 966 r absorcion2;
#X obj 706 390 r porosity1;
#X obj 1183 391 r porosity2;
#X obj 1188 77 delay 2000;
#X obj 428 28 loadbang;
#X obj 438 97 delay 13000;
#X msg 379 149 \; pd dsp 1;
#X connect 3 0 6 0;
#X connect 4 0 6 1;
#X connect 5 0 4 1;
#X connect 5 0 3 1;
#X connect 7 0 18 0;
#X connect 7 0 19 0;
#X connect 7 0 27 0;
#X connect 7 0 28 0;
#X connect 7 0 36 0;
#X connect 7 0 37 0;
#X connect 7 0 45 0;
#X connect 7 0 46 0;
#X connect 7 0 65 0;
#X connect 7 0 64 0;
#X connect 7 0 54 0;
#X connect 7 0 17 0;
#X connect 7 0 16 0;
#X connect 7 0 55 0;
#X connect 11 0 14 0;
#X connect 12 0 14 1;
#X connect 13 0 12 1;
#X connect 13 0 11 1;
#X connect 15 0 18 0;
#X connect 15 0 19 0;
#X connect 15 0 27 0;
#X connect 15 0 28 0;
#X connect 15 0 36 0;
#X connect 15 0 37 0;
#X connect 15 0 45 0;
#X connect 15 0 46 0;
#X connect 15 0 16 0;
#X connect 15 0 17 0;
#X connect 15 0 54 0;
#X connect 15 0 55 0;
#X connect 15 0 64 0;
#X connect 15 0 65 0;
#X connect 16 0 3 0;
#X connect 17 0 4 0;
#X connect 18 0 11 0;
#X connect 18 1 56 0;
#X connect 19 0 12 0;
#X connect 19 1 56 0;
#X connect 23 0 26 0;
#X connect 24 0 26 1;
#X connect 25 0 24 1;
#X connect 25 0 23 1;
#X connect 27 0 23 0;
#X connect 27 1 56 0;
#X connect 28 0 24 0;
#X connect 28 1 56 0;
#X connect 32 0 35 0;
#X connect 33 0 35 1;
#X connect 34 0 33 1;
#X connect 34 0 32 1;
#X connect 36 0 32 0;
#X connect 36 1 56 0;
#X connect 37 0 33 0;
#X connect 37 1 56 0;
#X connect 41 0 44 0;
#X connect 42 0 44 1;
#X connect 43 0 42 1;
#X connect 43 0 41 1;
#X connect 45 0 41 0;
#X connect 45 1 56 0;
#X connect 46 0 42 0;
#X connect 46 1 56 0;
#X connect 50 0 53 0;
#X connect 51 0 53 1;
#X connect 52 0 51 1;
#X connect 52 0 50 1;
#X connect 54 0 50 0;
#X connect 55 0 51 0;
#X connect 56 0 15 0;
#X connect 60 0 63 0;
#X connect 61 0 63 1;
#X connect 62 0 61 1;
#X connect 62 0 60 1;
#X connect 64 0 60 0;
#X connect 65 0 61 0;
#X connect 66 0 67 0;
#X connect 66 0 70 0;
#X connect 67 0 8 0;
#X connect 68 0 20 0;
#X connect 69 0 29 0;
#X connect 70 0 71 0;
#X connect 70 0 68 0;
#X connect 71 0 72 0;
#X connect 71 0 69 0;
#X connect 72 0 73 0;
#X connect 72 0 76 0;
#X connect 73 0 74 0;
#X connect 73 0 77 0;
#X connect 74 0 75 0;
#X connect 74 0 78 0;
#X connect 75 0 79 0;
#X connect 75 0 98 0;
#X connect 76 0 38 0;
#X connect 77 0 0 0;
#X connect 78 0 47 0;
#X connect 79 0 57 0;
#X connect 80 0 81 0;
#X connect 80 1 83 0;
#X connect 80 2 85 0;
#X connect 80 3 86 0;
#X connect 80 4 87 0;
#X connect 80 5 88 0;
#X connect 80 6 89 0;
#X connect 80 7 90 0;
#X connect 82 0 43 0;
#X connect 84 0 34 0;
#X connect 91 0 5 0;
#X connect 93 0 92 0;
#X connect 94 0 52 0;
#X connect 95 0 62 0;
#X connect 96 0 13 0;
#X connect 97 0 25 0;
#X connect 98 0 15 0;
#X connect 99 0 100 0;
#X connect 99 0 101 0;
#X connect 100 0 66 0;
